<?xml version="1.0" encoding="UTF-8"?>
<svg id="Layer_1" data-name="Layer 1" xmlns="http://www.w3.org/2000/svg" viewBox="0 0 32 32">
  <path d="M17,26H9c-1.654,0-3-1.346-3-3V6c0-1.654,1.346-3,3-3h12c1.654,0,3,1.346,3,3v5.06c0,.552,.447,1,1,1s1-.448,1-1V6c0-2.757-2.243-5-5-5H9c-2.757,0-5,2.243-5,5V23c0,2.757,2.243,5,5,5h8c.553,0,1-.448,1-1s-.447-1-1-1Z"/>
  <path d="M10,9h7c.553,0,1-.448,1-1s-.447-1-1-1h-7c-.553,0-1,.448-1,1s.447,1,1,1Z"/>
  <path d="M19.36,13c0-.552-.447-1-1-1H10c-.553,0-1,.448-1,1s.447,1,1,1h8.36c.553,0,1-.448,1-1Z"/>
  <path d="M16.52,17c0-.552-.447-1-1-1h-5.52c-.553,0-1,.448-1,1s.447,1,1,1h5.52c.553,0,1-.448,1-1Z"/>
  <path d="M10,20c-.553,0-1,.448-1,1s.447,1,1,1h5.06c.553,0,1-.448,1-1s-.447-1-1-1h-5.06Z"/>
  <path d="M30,20c0-3.309-2.691-6-6-6s-6,2.691-6,6c0,1.771,.776,3.36,2,4.46v5.037c0,.554,.305,1.062,.794,1.324,.492,.264,1.08,.235,1.544-.074l1.662-1.116,1.666,1.118c.25,.167,.538,.25,.828,.25,.243,0,.488-.059,.712-.179,.489-.262,.794-.77,.794-1.324v-5.037c1.224-1.099,2-2.688,2-4.46Zm-4,8.564l-1.442-.968c-.338-.227-.777-.227-1.115,0l-1.442,.968v-2.914c.627,.223,1.298,.35,2,.35s1.373-.128,2-.35v2.914Zm-2-4.564c-2.206,0-4-1.794-4-4s1.794-4,4-4,4,1.794,4,4-1.794,4-4,4Z"/>
</svg>